<svg version="1.0" xmlns="http://www.w3.org/2000/svg"
     width="104pt" height="104pt" viewBox="0 0 512.000000 512.000000"
     preserveAspectRatio="xMidYMid meet">

    <g transform="translate(180.000000,512.000000) scale(0.100000,-0.100000)"
       fill="#AB7442">
        <path d="M2360 4875 c0 -25 32 -99 72 -166 21 -35 21 -38 4 -63 -21 -34 -57
-50 -89 -42 -13 3 -60 42 -103 86 -111 114 -115 116 -276 112 -72 -2 -78 -4
-78 -23 0 -12 27 -57 60 -101 33 -43 60 -84 60 -89 0 -18 -58 -69 -77 -69 -30
1 -98 36 -153 79 -57 45 -97 56 -173 48 -72 -8 -158 -25 -165 -32 -13 -13 26
-62 91 -114 77 -62 86 -92 41 -138 -32 -32 -58 -29 -181 21 -97 40 -159 46
-208 20 -16 -9 -58 -27 -92 -41 -35 -14 -63 -31 -63 -38 0 -17 54 -51 128 -79
72 -28 90 -57 68 -110 -19 -46 -48 -53 -151 -37 -180 29 -168 30 -280 -42 -55
-35 -101 -71 -103 -80 -4 -19 93 -57 147 -57 86 0 123 -81 60 -134 -28 -24
-37 -26 -133 -26 -137 0 -181 -21 -260 -124 -31 -40 -56 -76 -56 -78 0 -17 68
-30 132 -26 65 5 73 4 95 -18 24 -24 30 -63 13 -93 -12 -23 -63 -44 -161 -65
-87 -20 -131 -43 -155 -83 -9 -15 -37 -58 -62 -95 -24 -36 -41 -71 -37 -77 9
-16 109 -13 171 5 62 18 85 10 104 -35 22 -53 -1 -79 -124 -141 -66 -34 -118
-67 -131 -85 -26 -34 -88 -213 -78 -228 10 -16 83 0 145 32 70 37 82 38 113 6
50 -49 23 -100 -103 -194 -80 -60 -91 -76 -103 -155 -22 -141 -23 -176 -5
-176 25 0 87 34 135 74 24 20 52 36 63 36 25 0 78 -53 78 -78 0 -20 -41 -80
-101 -150 -59 -67 -72 -108 -66 -197 8 -104 17 -145 32 -145 22 0 94 59 110
90 8 16 27 37 40 46 22 14 30 15 56 3 19 -7 37 -25 44 -43 16 -36 6 -69 -54
-178 -52 -95 -57 -129 -33 -204 10 -32 24 -78 31 -101 8 -31 17 -43 31 -43 21
0 67 54 98 116 29 56 45 68 87 60 35 -7 65 -37 65 -67 0 -9 -14 -65 -31 -124
-20 -70 -29 -122 -26 -145 5 -39 102 -220 118 -220 15 0 48 61 65 120 24 84
38 100 83 100 26 0 44 -7 57 -21 17 -19 19 -35 16 -161 -3 -119 -1 -143 14
-166 23 -36 126 -165 138 -174 26 -18 44 27 55 140 10 94 22 112 74 112 64 0
78 -27 98 -181 12 -96 35 -144 86 -179 20 -14 57 -42 82 -62 25 -21 51 -38 57
-38 27 0 31 68 12 163 -12 59 -12 59 15 83 28 24 60 30 92 18 19 -8 44 -55 79
-153 36 -99 58 -127 126 -160 32 -16 72 -38 88 -50 17 -11 40 -21 51 -21 29 0
28 48 -4 146 -26 80 -24 102 14 131 50 38 105 1 174 -119 58 -99 79 -115 191
-143 112 -29 122 -30 129 -11 6 16 -33 106 -63 143 -43 55 -7 133 62 133 28 0
45 -13 119 -89 95 -98 111 -106 234 -116 44 -3 90 -9 102 -12 29 -7 40 20 22
53 -7 14 -37 51 -66 83 -59 65 -65 93 -32 135 34 43 72 36 180 -35 123 -81
132 -84 232 -70 121 18 127 20 127 39 0 9 -31 46 -70 82 -84 77 -96 110 -57
155 33 39 73 37 177 -10 101 -46 171 -50 239 -16 24 13 67 30 95 38 l50 15
-35 33 c-19 17 -58 40 -85 50 -73 27 -96 51 -92 99 2 29 10 44 31 60 26 19 31
19 110 7 45 -7 109 -15 142 -17 60 -6 60 -5 152 55 50 33 95 66 99 72 11 19
-20 35 -105 53 -101 22 -143 63 -121 120 14 38 46 49 164 57 133 10 174 28
265 115 61 58 65 64 50 79 -12 12 -42 18 -112 22 -105 6 -128 19 -142 75 -6
22 -1 33 21 56 23 22 53 34 142 57 88 21 119 34 140 55 38 39 125 187 117 199
-9 16 -59 13 -132 -5 -77 -19 -108 -13 -128 26 -34 65 -16 90 110 155 50 25
103 58 118 73 30 29 103 170 109 212 3 24 1 25 -45 23 -26 -2 -62 -10 -78 -19
-49 -25 -59 -14 -59 65 0 87 10 114 61 161 33 30 44 49 55 96 20 86 28 190 16
198 -5 3 -45 -11 -89 -31 -87 -42 -151 -50 -179 -21 -24 24 -7 64 66 153 73
87 90 136 90 249 0 96 -7 126 -28 126 -8 0 -49 -36 -91 -80 -84 -88 -107 -97
-155 -59 -40 32 -34 71 30 199 40 79 55 118 51 138 -8 48 -57 206 -67 216 -15
15 -52 -26 -90 -100 -19 -36 -43 -70 -53 -76 -28 -14 -84 -1 -102 25 -21 31
-19 61 15 178 19 65 28 115 24 132 -7 32 -91 214 -102 221 -21 13 -59 -52 -87
-147 -23 -80 -72 -101 -130 -55 l-28 22 6 129 c8 157 4 167 -94 267 -37 38
-70 70 -72 70 -13 0 -39 -91 -39 -138 -1 -70 -25 -102 -77 -102 -62 0 -79 33
-101 195 -10 75 -45 155 -68 155 -5 0 -37 25 -72 55 -35 30 -69 55 -76 55 -18
0 -26 -65 -19 -154 6 -75 5 -83 -15 -101 -30 -27 -87 -25 -111 3 -10 13 -32
60 -48 105 -55 148 -54 146 -174 207 -90 45 -110 52 -118 40 -11 -18 -4 -66
23 -143 11 -32 17 -68 14 -80 -5 -23 -53 -57 -80 -57 -26 0 -72 50 -124 134
-27 44 -60 88 -73 98 -21 16 -211 78 -239 78 -6 0 -10 -11 -10 -25z m337
-1926 c329 -113 365 -593 55 -757 -214 -113 -476 -34 -573 173 -84 178 -50
365 87 495 117 111 274 143 431 89z" transform="scale(0.65)"/>
    </g>
</svg>
